<?xml version="1.0" standalone="no"?>
<!DOCTYPE svg PUBLIC "-//W3C//DTD SVG 20010904//EN"
 "http://www.w3.org/TR/2001/REC-SVG-20010904/DTD/svg10.dtd">
<svg version="1.0" xmlns="http://www.w3.org/2000/svg"
 width="1280.000000pt" height="1002.000000pt" viewBox="0 0 1280.000000 1002.000000"
 preserveAspectRatio="xMidYMid meet">
<g transform="translate(0.000000,1002.000000) scale(0.100000,-0.100000)"
fill="#14b4ab1c" stroke="none">
<path d="M11080 10017 c-3 -3 -52 -11 -110 -17 -427 -46 -756 -186 -995 -425
-95 -94 -187 -222 -230 -319 -120 -272 -121 -624 -2 -851 41 -76 137 -174 204
-209 29 -14 167 -59 305 -99 233 -66 260 -72 343 -71 183 2 324 78 419 227 90
141 101 339 26 487 -56 110 -209 225 -368 274 -157 49 -178 75 -133 164 64
125 294 278 468 312 76 15 91 8 159 -78 128 -161 194 -383 194 -657 0 -267
-68 -543 -217 -890 -203 -469 -229 -562 -240 -840 -5 -148 8 -350 24 -366 5
-5 98 -34 208 -65 l199 -56 103 7 c57 4 115 10 128 13 l25 7 3 180 c5 217 20
296 81 420 63 127 158 240 317 374 343 291 487 434 590 591 168 252 244 569
201 830 -43 261 -121 427 -277 585 -131 134 -273 221 -450 278 -186 59 -558
157 -655 173 -107 17 -311 30 -320 21z"/>
<path d="M3045 8944 c-347 -28 -670 -101 -970 -221 -759 -301 -1366 -856
-1715 -1568 -178 -363 -260 -683 -320 -1240 -11 -104 -24 -231 -30 -282 -19
-174 -13 -278 31 -557 37 -234 102 -479 183 -701 70 -187 268 -563 337 -636
18 -19 47 -63 66 -99 19 -36 45 -76 59 -91 13 -14 24 -37 24 -51 0 -42 85
-199 159 -295 38 -49 142 -159 232 -244 409 -386 497 -498 595 -749 64 -165
194 -550 194 -575 0 -13 9 -52 20 -87 11 -34 34 -153 50 -263 26 -177 30 -226
30 -430 0 -256 -12 -467 -35 -619 -25 -163 -26 -180 -16 -196 9 -13 224 -16
1783 -22 975 -4 1816 -10 1868 -14 101 -6 248 9 273 29 9 8 24 93 46 262 18
138 48 335 66 438 62 345 64 395 24 682 -54 385 -27 571 94 653 50 34 87 47
182 63 39 6 113 22 166 35 101 25 233 43 513 69 186 18 336 51 401 89 81 48
151 173 196 351 29 115 29 124 19 215 -21 176 -56 274 -129 353 -21 23 -64 76
-96 117 -31 41 -63 79 -71 83 -9 5 -14 25 -14 53 0 25 -5 76 -11 113 -13 76 4
182 42 271 40 94 52 91 120 -30 130 -233 674 -1122 838 -1370 64 -96 121 -190
128 -208 7 -18 56 -96 109 -173 128 -188 133 -200 129 -324 l-3 -99 -36 -31
c-54 -45 -76 -84 -76 -133 0 -38 6 -48 48 -90 29 -30 72 -59 115 -77 58 -25
67 -33 67 -55 -1 -14 -7 -36 -15 -50 -8 -14 -14 -37 -15 -51 0 -33 61 -104
108 -127 30 -14 39 -25 50 -67 18 -63 32 -79 98 -110 30 -14 58 -33 63 -43 5
-10 43 -57 83 -104 112 -130 277 -352 325 -437 24 -42 57 -113 74 -158 46
-120 91 -152 202 -138 34 4 125 10 202 14 163 7 1679 -5 1776 -14 53 -5 74 -3
105 12 44 21 45 25 26 133 -7 36 -12 159 -12 275 -1 211 -8 292 -29 304 -8 5
-7 16 1 39 9 24 9 47 0 105 -7 40 -17 147 -22 237 -19 361 -51 523 -135 691
-49 96 -106 150 -255 238 -194 116 -288 180 -359 244 -151 137 -449 348 -584
413 -95 45 -181 58 -362 51 -151 -5 -557 -53 -715 -83 -47 -9 -141 -36 -210
-60 -69 -24 -165 -55 -215 -69 -49 -14 -97 -28 -106 -31 -24 -7 -73 39 -109
100 -36 63 -37 72 -9 87 17 9 32 6 80 -16 33 -14 63 -23 69 -20 15 9 -30 91
-113 202 -112 150 -558 810 -645 953 -172 286 -275 372 -421 355 -55 -6 -60
-5 -94 24 -19 17 -46 31 -60 31 -66 0 -149 -56 -189 -127 -22 -39 -36 -53 -52
-53 -56 0 -62 61 -11 127 63 82 51 124 -85 302 -121 158 -152 273 -101 371 13
24 74 96 135 160 133 137 159 182 158 279 0 79 -25 155 -76 235 -47 74 -193
225 -278 288 -36 27 -69 56 -72 64 -3 8 -77 62 -163 119 -156 104 -357 247
-470 336 -80 63 -106 128 -114 289 -6 129 -17 169 -97 384 -223 598 -611 1090
-1134 1437 -409 271 -831 429 -1325 494 -114 15 -485 27 -588 19z"/>
<path d="M10990 6125 c-99 -28 -162 -65 -240 -144 -133 -134 -187 -272 -177
-456 9 -159 54 -263 163 -370 89 -88 146 -114 439 -196 235 -66 269 -73 350
-73 210 0 388 111 489 304 47 90 66 167 66 272 0 172 -49 298 -159 407 -82 82
-140 113 -278 150 -59 16 -173 49 -253 72 -169 49 -303 60 -400 34z"/>
</g>
</svg>
