<svg xmlns="http://www.w3.org/2000/svg" viewBox="0 0 1440 320" preserveAspectRatio="none">
<path fill="#aef3eb" fill-opacity="1" d="M0,256L34.3,240C68.6,224,137,192,206,170.7C274.3,149,343,139,411,160C480,181,
549,235,617,240C685.7,245,754,203,823,160C891.4,117,960,75,1029,53.3C1097.1,32,1166,32,1234,48C1302.9,64,1371,96,1406,
112L1440,128L1440,320L1405.7,320C1371.4,320,1303,320,1234,320C1165.7,320,1097,320,1029,320C960,320,891,320,823,320C754.3,
320,686,320,617,320C548.6,320,480,320,411,320C342.9,320,274,320,206,320C137.1,320,69,320,34,320L0,320Z"></path></svg>